<svg xmlns="http://www.w3.org/2000/svg" xmlns:xlink="http://www.w3.org/1999/xlink" version="1.1" x="0px" y="0px" viewBox="0 0 256 320" style="enable-background:new 0 0 256 256;" xml:space="preserve"><g><g><path d="M128,18C67.2,18,18,67.2,18,128c0,60.8,49.2,110,110,110s110-49.2,110-110C238,67.2,188.8,18,128,18z M118.5,135.9    c-3.5,0-9.3,2.2-9.7,4.1l-0.7,4.5c-0.2,1.2-1.3,2.1-2.5,2.1c-0.1,0-0.3,0-0.4,0c-0.6-0.1-1.2-0.4-1.6-1c-0.4-0.6-0.5-1.2-0.4-1.9    l0.8-4.6c1.2-5.7,10.3-8.2,14.5-8.2c1.4,0,2.5,1.1,2.5,2.5C121,134.8,120,135.9,118.5,135.9z M127.8,132.8c-6.5,0-8.5-3.1-9.6-4.8    l-0.1-0.2c-1.2-1.8-2.8-5.6-3.6-7.7c-1.3-0.7-2.1-2.1-2.1-3.6v-3.1c0-1.2,0.5-2.3,1.5-3.1v-0.7c0-2.9,1-12.4,14-12.4    c8.8,0,14,4.6,14,12.4v0.7c0.9,0.8,1.5,1.9,1.5,3.2v3.1c0,1.6-0.8,2.9-2.1,3.6c-0.8,2-2.4,5.8-3.6,7.7l-0.1,0.2    C136.5,129.8,134.5,132.9,127.8,132.8z M152.2,145.7c-0.4,0.5-0.9,0.9-1.6,1c-0.1,0-0.3,0-0.4,0c-1.3,0-2.3-0.9-2.5-2.1l-0.8-4.6    c-0.3-1.7-5.1-4-9.7-4c-1.4,0-2.6-1.1-2.6-2.5c0-1.4,1.1-2.5,2.5-2.5c5.3,0,13.6,2.6,14.7,8.1l0.8,4.7    C152.7,144.5,152.5,145.2,152.2,145.7z"/><path d="M138.3,115.9v-1.5c-0.9-0.4-1.5-1.3-1.5-2.3v-2.3c0-5-2.9-7.4-8.9-7.4c-5.9,0-8.9,2.5-8.9,7.4v2.3c0,1-0.6,1.9-1.5,2.3    v1.5c0.7,0.2,1.2,0.7,1.4,1.4c0.5,1.2,2.4,6.2,3.6,7.9l0.1,0.2c0.8,1.2,1.6,2.5,5.2,2.5c3.7,0,4.6-1.3,5.4-2.5l0.1-0.2    c1.1-1.6,2.8-5.9,3.6-7.9C137.1,116.7,137.6,116.2,138.3,115.9z"/></g></g><text x="0" y="271" fill="#000000" font-size="5px" font-weight="bold" font-family="'Helvetica Neue', Helvetica, Arial-Unicode, Arial, Sans-serif">Created by Shocho</text><text x="0" y="276" fill="#000000" font-size="5px" font-weight="bold" font-family="'Helvetica Neue', Helvetica, Arial-Unicode, Arial, Sans-serif">from the Noun Project</text></svg>